<svg width="512" height="512" viewBox="0 0 512 512" fill="none" xmlns="http://www.w3.org/2000/svg">
<path d="M28 255.489C28 224.719 34.0933 195.168 46.28 166.835C58.4667 138.502 74.614 114.13 94.722 93.7187C114.83 73.307 139.203 57.1605 167.842 45.2791C196.481 33.3977 226.033 27.3047 256.5 27C287.576 27 317.281 33.093 345.615 45.2791C373.949 57.4651 398.17 73.6117 418.278 93.7187C438.386 113.826 454.533 138.198 466.72 166.835C478.907 195.472 485 225.023 485 255.489V341.4C485 365.163 476.622 385.27 459.865 401.721C443.108 418.172 423 426.55 399.541 426.855C377.91 426.855 359.173 419.848 343.33 405.834C327.487 391.82 318.043 374.303 314.996 353.282C296.411 364.249 276.913 369.733 256.5 369.733C235.783 369.733 216.741 364.706 199.375 354.653C182.009 344.599 167.994 330.737 157.331 313.068C146.668 295.398 141.641 276.205 142.25 255.489C142.25 224.109 153.37 197.3 175.611 175.061C197.852 152.821 224.815 141.549 256.5 141.244C288.185 140.94 315.148 152.212 337.389 175.061C359.63 197.909 370.75 224.719 370.75 255.489V341.4C370.75 349.017 373.644 355.719 379.433 361.507C385.222 367.296 391.924 370.038 399.541 369.733C407.158 369.733 413.86 366.991 419.649 361.507C425.438 356.024 428.18 349.321 427.875 341.4V255.489C427.875 224.414 420.258 195.777 405.025 169.577C389.792 143.377 368.922 122.661 342.416 107.428C315.91 92.1954 287.271 84.4268 256.5 84.1221C225.729 83.8175 197.09 91.5861 170.584 107.428C144.078 123.27 123.208 143.986 107.975 169.577C92.7417 195.168 85.125 223.805 85.125 255.489C85.125 287.172 92.7417 315.962 107.975 341.857C123.208 367.753 144.078 388.469 170.584 404.006C197.09 419.543 225.729 427.16 256.5 426.855H285.291C292.908 426.855 299.61 429.749 305.399 435.538C311.188 441.326 313.93 448.028 313.625 455.645C313.32 463.261 310.578 469.963 305.399 475.752C300.22 481.54 293.517 484.282 285.291 483.977H256.5C225.424 483.977 195.871 478.036 167.842 466.155C139.813 454.274 115.439 437.975 94.722 417.258C74.0047 396.542 57.8573 372.17 46.28 344.142C34.7027 316.114 28.6093 286.563 28 255.489ZM199.375 255.489C199.375 271.33 205.011 284.887 216.284 296.16C227.557 307.432 240.962 312.915 256.5 312.611C272.038 312.306 285.443 306.822 296.716 296.16C307.989 285.497 313.625 271.94 313.625 255.489C313.625 239.037 307.989 225.633 296.716 215.275C285.443 204.916 272.038 199.28 256.5 198.366C240.962 197.452 227.557 203.089 216.284 215.275C205.011 227.461 199.375 240.865 199.375 255.489Z" fill="white"/>
</svg>
