<svg width="49" height="49" viewBox="0 0 49 49" fill="none" xmlns="http://www.w3.org/2000/svg">
<path d="M14.3946 9.44444H46L41.7 25H16.71M43.85 33.8889H18.05L13.75 5H7.3M7.3 16.1111H3M9.45 22.7778H3M11.6 29.4444H3M20.2 42.7778C20.2 44.0051 19.2374 45 18.05 45C16.8626 45 15.9 44.0051 15.9 42.7778C15.9 41.5504 16.8626 40.5556 18.05 40.5556C19.2374 40.5556 20.2 41.5504 20.2 42.7778ZM43.85 42.7778C43.85 44.0051 42.8874 45 41.7 45C40.5126 45 39.55 44.0051 39.55 42.7778C39.55 41.5504 40.5126 40.5556 41.7 40.5556C42.8874 40.5556 43.85 41.5504 43.85 42.7778Z" stroke="white" stroke-width="3" stroke-linecap="round" stroke-linejoin="round"/>
</svg>
