<svg width="30" height="30" viewBox="0 0 30 30" fill="none" xmlns="http://www.w3.org/2000/svg">
<path d="M26.25 6.25L23.75 15H9.22089M25 20H10L7.5 3.75H3.75M14.375 8.75L16.875 11.25M16.875 11.25L19.375 8.75M16.875 11.25V3.75M11.25 25C11.25 25.6904 10.6904 26.25 10 26.25C9.30965 26.25 8.75 25.6904 8.75 25C8.75 24.3096 9.30965 23.75 10 23.75C10.6904 23.75 11.25 24.3096 11.25 25ZM25 25C25 25.6904 24.4404 26.25 23.75 26.25C23.0596 26.25 22.5 25.6904 22.5 25C22.5 24.3096 23.0596 23.75 23.75 23.75C24.4404 23.75 25 24.3096 25 25Z" stroke="#3D454C" stroke-width="2" stroke-linecap="round" stroke-linejoin="round"/>
</svg>
