<svg width="45" height="45" viewBox="0 0 45 45" fill="none" xmlns="http://www.w3.org/2000/svg">
<path d="M26.25 30H33.375C35.4752 30 36.5254 30 37.3275 29.5912C38.0331 29.2318 38.6068 28.6581 38.9662 27.9525C39.375 27.1504 39.375 26.1002 39.375 24V11.625C39.375 9.52481 39.375 8.4747 38.9662 7.67254C38.6068 6.96692 38.0331 6.39324 37.3275 6.03373C36.5254 5.625 35.4752 5.625 33.375 5.625H17.25C15.1498 5.625 14.0997 5.625 13.2975 6.03373C12.5919 6.39324 12.0182 6.96692 11.6587 7.67254C11.2751 8.42548 11.2515 9.39684 11.2501 11.25M33.75 11.25L24.375 20.625L18.75 15M33.75 11.25V16.875M33.75 11.25H28.125M16.875 22.5C16.875 24.5711 15.1961 26.25 13.125 26.25C11.0539 26.25 9.375 24.5711 9.375 22.5C9.375 20.4289 11.0539 18.75 13.125 18.75C15.1961 18.75 16.875 20.4289 16.875 22.5ZM13.125 31.875C14.8687 31.875 15.7405 31.875 16.4559 32.0666C18.397 32.5867 19.9133 34.1031 20.4334 36.0441C20.625 36.7594 20.625 37.6312 20.625 39.375H5.625C5.625 37.6312 5.625 36.7594 5.81666 36.0441C6.33679 34.1031 7.85301 32.5867 9.79414 32.0666C10.5094 31.875 11.3813 31.875 13.125 31.875Z" stroke="#5D6973" stroke-width="3" stroke-linecap="round" stroke-linejoin="round"/>
</svg>
