<svg width="512" height="513" viewBox="0 0 512 513" fill="none" xmlns="http://www.w3.org/2000/svg">
<path d="M256 44.0195C138.667 44.0195 42.6666 139.806 42.6666 257.78C42.6666 364.447 120.747 452.98 222.72 468.98V319.647H168.533V257.78H222.72V210.633C222.72 157.086 254.507 127.646 303.36 127.646C326.613 127.646 350.933 131.7 350.933 131.7V184.393H324.053C297.6 184.393 289.28 200.82 289.28 217.673V257.78H348.587L338.987 319.647H289.28V468.98C339.55 461.04 385.327 435.391 418.344 396.66C451.362 357.931 469.448 308.673 469.333 257.78C469.333 139.806 373.333 44.0195 256 44.0195Z" fill="white"/>
</svg>
