<svg width="49" height="51" viewBox="0 0 49 51" fill="none" xmlns="http://www.w3.org/2000/svg">
<path d="M24.5 19C28.0898 19 31 21.9102 31 25.5C31 29.09 28.0898 32 24.5 32C20.9102 31.9999 18 29.0899 18 25.5C18 21.9102 20.9102 19.0001 24.5 19ZM24.5 19.25C21.0481 19.2501 18.25 22.0485 18.25 25.5C18.25 28.9518 21.0482 31.7499 24.5 31.75C27.9518 31.75 30.75 28.9518 30.75 25.5C30.75 22.0484 27.9519 19.25 24.5 19.25Z" fill="white" stroke="white" stroke-width="4"/>
<mask id="path-2-inside-1_459_25" fill="white">
<path fill-rule="evenodd" clip-rule="evenodd" d="M22.0214 3.03496C22.4742 2.99965 22.9827 2.99986 23.3973 3.00002H25.6027C26.0173 2.99986 26.5258 2.99965 26.9786 3.03496C27.5139 3.07669 28.2556 3.18278 29.0511 3.55099C30.0566 4.01637 30.9172 4.75369 31.5389 5.68255C32.0309 6.41744 32.2597 7.14307 32.3912 7.67243C32.5024 8.12047 32.5887 8.63009 32.6589 9.04575L32.9436 10.7243L32.9492 10.7275C33.0192 10.7668 33.0888 10.8067 33.1581 10.847L33.1634 10.8499L35.0472 10.1563C35.4294 10.0155 35.8993 9.84223 36.33 9.72019C36.8399 9.57572 37.5604 9.42045 38.4173 9.48462C39.5027 9.56587 40.5461 9.94425 41.4372 10.5797C42.1408 11.0815 42.6022 11.6653 42.9073 12.1053C43.1652 12.4771 43.4214 12.9137 43.6299 13.2688L44.6389 14.9864C44.8597 15.3616 45.1287 15.8191 45.3364 16.2449C45.5809 16.7461 45.8795 17.471 45.9698 18.3832C46.0832 19.5318 45.8761 20.6897 45.3718 21.7239C44.9713 22.5451 44.4404 23.1164 44.0379 23.4979C43.6961 23.8217 43.2857 24.1535 42.9493 24.4253L41.5911 25.5L42.9493 26.5747C43.2857 26.8467 43.6961 27.1783 44.0379 27.5023C44.4404 27.8835 44.9713 28.4548 45.3716 29.2761C45.8759 30.3103 46.0832 31.4682 45.9696 32.6169C45.8795 33.529 45.5807 34.2539 45.3362 34.7552C45.1285 35.1809 44.8595 35.6385 44.6389 36.0136L43.6295 37.7316C43.4212 38.0867 43.165 38.523 42.9073 38.8946C42.602 39.3348 42.1408 39.9186 41.437 40.4203C40.5461 41.0559 39.5025 41.4343 38.4173 41.5155C37.5604 41.5797 36.8399 41.4242 36.33 41.2798C35.8991 41.1577 35.4292 40.9847 35.047 40.8437L33.1632 40.1501L33.1581 40.1532C33.0888 40.1935 33.0192 40.2332 32.9492 40.2727L32.9436 40.2757L32.6589 41.9542C32.5887 42.3699 32.5024 42.8796 32.3912 43.3275C32.2597 43.8569 32.0309 44.5826 31.5389 45.3176C30.9172 46.2464 30.0566 46.9838 29.0511 47.4491C28.2556 47.8173 27.5139 47.9235 26.9786 47.9652C26.5256 48.0004 26.0173 48.0002 25.6027 48H23.3973C22.9827 48.0002 22.4742 48.0004 22.0214 47.9652C21.4862 47.9235 20.7444 47.8173 19.9489 47.4491C18.9434 46.9838 18.0828 46.2464 17.461 45.3176C16.9691 44.5826 16.7402 43.8569 16.6088 43.3275C16.4976 42.8796 16.4114 42.3699 16.3411 41.9542L16.0564 40.2757L16.0508 40.2727C15.9808 40.2332 15.9112 40.1935 15.8418 40.153L15.8367 40.1501L13.953 40.8437C13.5708 40.9845 13.1009 41.1577 12.67 41.2798C12.1601 41.4242 11.4397 41.5795 10.5827 41.5155C9.49743 41.4343 8.45397 41.0559 7.56289 40.4203C6.85926 39.9186 6.39788 39.3348 6.09276 38.8946C5.83496 38.523 5.57872 38.0865 5.37033 37.7314L4.36111 36.0136C4.14052 35.6385 3.87148 35.1809 3.66378 34.7552C3.41923 34.2539 3.12052 33.529 3.03036 32.6169C2.91682 31.4682 3.1241 30.3103 3.62837 29.2761C4.02882 28.4548 4.55959 27.8835 4.96211 27.5023C5.30401 27.1783 5.7143 26.8467 6.05073 26.5747L7.36563 25.511V25.4891L6.05065 24.4253C5.7142 24.1535 5.30393 23.8217 4.96203 23.4979C4.55951 23.1164 4.02874 22.5451 3.62829 21.7239C3.12402 20.6897 2.91674 19.5318 3.03026 18.3832C3.12042 17.4711 3.41915 16.7461 3.66368 16.2449C3.87138 15.8192 4.14044 15.3616 4.36103 14.9865L5.37023 13.2687C5.57862 12.9137 5.83488 12.4771 6.09265 12.1054C6.3978 11.6653 6.85916 11.0815 7.5628 10.5797C8.45387 9.94427 9.49735 9.56589 10.5826 9.48464C11.4396 9.42047 12.16 9.57574 12.6699 9.72021C13.1007 9.84227 13.5707 10.0155 13.9529 10.1564L15.8367 10.8499L15.8418 10.847C15.9112 10.8067 15.9808 10.7668 16.0508 10.7275L16.0564 10.7243L16.3411 9.04577C16.4114 8.63011 16.4976 8.12047 16.6088 7.67243C16.7402 7.14307 16.9691 6.41744 17.461 5.68255C18.0828 4.75369 18.9434 4.01637 19.9489 3.55099C20.7444 3.18278 21.4862 3.07669 22.0214 3.03496ZM28.71 9.82425C28.5436 8.84251 28.4603 8.35166 28.215 7.98512C28.0077 7.6755 27.721 7.42972 27.3858 7.27459C26.9889 7.09095 26.4993 7.09095 25.5201 7.09095H23.48C22.5008 7.09095 22.011 7.09095 21.6142 7.27459C21.2791 7.42972 20.9923 7.6755 20.785 7.98512C20.5397 8.35166 20.4564 8.84251 20.2899 9.82425L19.9762 11.674C19.8642 12.3341 19.8083 12.6641 19.6897 12.9178C19.5733 13.1669 19.4781 13.303 19.285 13.4966C19.0883 13.6937 18.7243 13.8984 17.9965 14.3077C17.9428 14.3379 17.8893 14.3684 17.8362 14.3994C17.1399 14.8039 16.7918 15.0061 16.5333 15.0746C16.2794 15.1419 16.1213 15.1557 15.8598 15.1335C15.5936 15.111 15.2953 15.0012 14.6988 14.7816L12.6608 14.0313C11.7576 13.6987 11.3059 13.5325 10.8778 13.5645C10.516 13.5916 10.1682 13.7177 9.87116 13.9295C9.51963 14.1802 9.27321 14.5996 8.78041 15.4385L7.85675 17.0106C7.33648 17.8962 7.07633 18.339 7.03152 18.7925C6.99367 19.1754 7.06276 19.5613 7.23086 19.9061C7.42994 20.3144 7.82681 20.6354 8.62056 21.2776L10.0781 22.4568C10.5844 22.8663 10.8376 23.0712 10.9963 23.2907C11.1679 23.5282 11.2411 23.6824 11.3169 23.9667C11.3871 24.2298 11.3871 24.6532 11.3871 25.5C11.3871 26.3468 11.3871 26.7702 11.3169 27.0335C11.241 27.3178 11.1679 27.472 10.9964 27.7093C10.8376 27.929 10.5844 28.1337 10.0781 28.5434L8.62066 29.7224C7.82691 30.3647 7.43004 30.6856 7.23094 31.0941C7.06284 31.4388 6.99375 31.8247 7.0316 32.2076C7.07643 32.6611 7.33656 33.1037 7.85683 33.9894L8.78049 35.5616C9.27332 36.4004 9.51971 36.8199 9.87124 37.0705C10.1683 37.2824 10.5161 37.4084 10.8779 37.4356C11.306 37.4675 11.7576 37.3012 12.6609 36.9688L14.6989 36.2186C15.2953 35.9989 15.5936 35.889 15.8598 35.8665C16.1213 35.8445 16.2794 35.8582 16.5333 35.9255C16.7918 35.994 17.1399 36.1963 17.8362 36.6007C17.8894 36.6315 17.9428 36.6622 17.9965 36.6923C18.7243 37.1016 19.0883 37.3063 19.2849 37.5035C19.4781 37.697 19.5733 37.8332 19.6897 38.0824C19.8083 38.336 19.8642 38.666 19.9762 39.326L20.2899 41.1757C20.4564 42.1575 20.5397 42.6484 20.785 43.015C20.9923 43.3245 21.2791 43.5703 21.6142 43.7254C22.011 43.9091 22.5008 43.9091 23.48 43.9091H25.5201C26.4993 43.9091 26.9889 43.9091 27.3858 43.7254C27.721 43.5703 28.0077 43.3245 28.215 43.015C28.4603 42.6484 28.5436 42.1575 28.71 41.1757L29.0239 39.326C29.1357 38.666 29.1918 38.336 29.3102 38.0824C29.4267 37.8332 29.522 37.697 29.715 37.5035C29.9118 37.3063 30.2758 37.1016 31.0035 36.6923C31.0571 36.6622 31.1106 36.6315 31.1637 36.6007C31.86 36.1963 32.2081 35.994 32.4667 35.9255C32.7206 35.8582 32.8786 35.8445 33.1402 35.8665C33.4065 35.889 33.7046 35.9989 34.301 36.2186L36.3391 36.9688C37.2423 37.3014 37.6941 37.4677 38.1222 37.4356C38.4839 37.4084 38.8318 37.2824 39.1287 37.0705C39.4802 36.8199 39.7267 36.4004 40.2195 35.5616L41.1433 33.9894C41.6634 33.104 41.9236 32.6611 41.9685 32.2076C42.0063 31.8247 41.9371 31.4388 41.769 31.0941C41.5699 30.6858 41.173 30.3647 40.3794 29.7224L38.922 28.5434C38.4155 28.1337 38.1624 27.929 38.0037 27.7093C37.8322 27.472 37.759 27.3178 37.683 27.0335C37.6129 26.7704 37.6129 26.3468 37.6129 25.5C37.6129 24.6532 37.6129 24.2298 37.683 23.9667C37.759 23.6824 37.8322 23.5282 38.0037 23.2907C38.1624 23.0712 38.4155 22.8663 38.9218 22.4568L40.3794 21.2776C41.1732 20.6354 41.5701 20.3143 41.7692 19.906C41.9373 19.5613 42.0063 19.1753 41.9685 18.7925C41.9236 18.339 41.6636 17.8962 41.1433 17.0106L40.2195 15.4384C39.7267 14.5996 39.4804 14.1802 39.1289 13.9295C38.8318 13.7177 38.4841 13.5916 38.1222 13.5645C37.6941 13.5324 37.2425 13.6987 36.3391 14.0313L34.3012 14.7816C33.7046 15.0012 33.4065 15.111 33.1402 15.1335C32.8786 15.1557 32.7206 15.1418 32.4667 15.0746C32.2081 15.0061 31.86 14.8038 31.1639 14.3994C31.1106 14.3684 31.0571 14.3379 31.0037 14.3077C30.2758 13.8984 29.9118 13.6937 29.715 13.4966C29.522 13.303 29.4267 13.1669 29.3102 12.9178C29.1918 12.6641 29.1357 12.3341 29.0239 11.674L28.71 9.82425Z"/>
</mask>
<path fill-rule="evenodd" clip-rule="evenodd" d="M22.0214 3.03496C22.4742 2.99965 22.9827 2.99986 23.3973 3.00002H25.6027C26.0173 2.99986 26.5258 2.99965 26.9786 3.03496C27.5139 3.07669 28.2556 3.18278 29.0511 3.55099C30.0566 4.01637 30.9172 4.75369 31.5389 5.68255C32.0309 6.41744 32.2597 7.14307 32.3912 7.67243C32.5024 8.12047 32.5887 8.63009 32.6589 9.04575L32.9436 10.7243L32.9492 10.7275C33.0192 10.7668 33.0888 10.8067 33.1581 10.847L33.1634 10.8499L35.0472 10.1563C35.4294 10.0155 35.8993 9.84223 36.33 9.72019C36.8399 9.57572 37.5604 9.42045 38.4173 9.48462C39.5027 9.56587 40.5461 9.94425 41.4372 10.5797C42.1408 11.0815 42.6022 11.6653 42.9073 12.1053C43.1652 12.4771 43.4214 12.9137 43.6299 13.2688L44.6389 14.9864C44.8597 15.3616 45.1287 15.8191 45.3364 16.2449C45.5809 16.7461 45.8795 17.471 45.9698 18.3832C46.0832 19.5318 45.8761 20.6897 45.3718 21.7239C44.9713 22.5451 44.4404 23.1164 44.0379 23.4979C43.6961 23.8217 43.2857 24.1535 42.9493 24.4253L41.5911 25.5L42.9493 26.5747C43.2857 26.8467 43.6961 27.1783 44.0379 27.5023C44.4404 27.8835 44.9713 28.4548 45.3716 29.2761C45.8759 30.3103 46.0832 31.4682 45.9696 32.6169C45.8795 33.529 45.5807 34.2539 45.3362 34.7552C45.1285 35.1809 44.8595 35.6385 44.6389 36.0136L43.6295 37.7316C43.4212 38.0867 43.165 38.523 42.9073 38.8946C42.602 39.3348 42.1408 39.9186 41.437 40.4203C40.5461 41.0559 39.5025 41.4343 38.4173 41.5155C37.5604 41.5797 36.8399 41.4242 36.33 41.2798C35.8991 41.1577 35.4292 40.9847 35.047 40.8437L33.1632 40.1501L33.1581 40.1532C33.0888 40.1935 33.0192 40.2332 32.9492 40.2727L32.9436 40.2757L32.6589 41.9542C32.5887 42.3699 32.5024 42.8796 32.3912 43.3275C32.2597 43.8569 32.0309 44.5826 31.5389 45.3176C30.9172 46.2464 30.0566 46.9838 29.0511 47.4491C28.2556 47.8173 27.5139 47.9235 26.9786 47.9652C26.5256 48.0004 26.0173 48.0002 25.6027 48H23.3973C22.9827 48.0002 22.4742 48.0004 22.0214 47.9652C21.4862 47.9235 20.7444 47.8173 19.9489 47.4491C18.9434 46.9838 18.0828 46.2464 17.461 45.3176C16.9691 44.5826 16.7402 43.8569 16.6088 43.3275C16.4976 42.8796 16.4114 42.3699 16.3411 41.9542L16.0564 40.2757L16.0508 40.2727C15.9808 40.2332 15.9112 40.1935 15.8418 40.153L15.8367 40.1501L13.953 40.8437C13.5708 40.9845 13.1009 41.1577 12.67 41.2798C12.1601 41.4242 11.4397 41.5795 10.5827 41.5155C9.49743 41.4343 8.45397 41.0559 7.56289 40.4203C6.85926 39.9186 6.39788 39.3348 6.09276 38.8946C5.83496 38.523 5.57872 38.0865 5.37033 37.7314L4.36111 36.0136C4.14052 35.6385 3.87148 35.1809 3.66378 34.7552C3.41923 34.2539 3.12052 33.529 3.03036 32.6169C2.91682 31.4682 3.1241 30.3103 3.62837 29.2761C4.02882 28.4548 4.55959 27.8835 4.96211 27.5023C5.30401 27.1783 5.7143 26.8467 6.05073 26.5747L7.36563 25.511V25.4891L6.05065 24.4253C5.7142 24.1535 5.30393 23.8217 4.96203 23.4979C4.55951 23.1164 4.02874 22.5451 3.62829 21.7239C3.12402 20.6897 2.91674 19.5318 3.03026 18.3832C3.12042 17.4711 3.41915 16.7461 3.66368 16.2449C3.87138 15.8192 4.14044 15.3616 4.36103 14.9865L5.37023 13.2687C5.57862 12.9137 5.83488 12.4771 6.09265 12.1054C6.3978 11.6653 6.85916 11.0815 7.5628 10.5797C8.45387 9.94427 9.49735 9.56589 10.5826 9.48464C11.4396 9.42047 12.16 9.57574 12.6699 9.72021C13.1007 9.84227 13.5707 10.0155 13.9529 10.1564L15.8367 10.8499L15.8418 10.847C15.9112 10.8067 15.9808 10.7668 16.0508 10.7275L16.0564 10.7243L16.3411 9.04577C16.4114 8.63011 16.4976 8.12047 16.6088 7.67243C16.7402 7.14307 16.9691 6.41744 17.461 5.68255C18.0828 4.75369 18.9434 4.01637 19.9489 3.55099C20.7444 3.18278 21.4862 3.07669 22.0214 3.03496ZM28.71 9.82425C28.5436 8.84251 28.4603 8.35166 28.215 7.98512C28.0077 7.6755 27.721 7.42972 27.3858 7.27459C26.9889 7.09095 26.4993 7.09095 25.5201 7.09095H23.48C22.5008 7.09095 22.011 7.09095 21.6142 7.27459C21.2791 7.42972 20.9923 7.6755 20.785 7.98512C20.5397 8.35166 20.4564 8.84251 20.2899 9.82425L19.9762 11.674C19.8642 12.3341 19.8083 12.6641 19.6897 12.9178C19.5733 13.1669 19.4781 13.303 19.285 13.4966C19.0883 13.6937 18.7243 13.8984 17.9965 14.3077C17.9428 14.3379 17.8893 14.3684 17.8362 14.3994C17.1399 14.8039 16.7918 15.0061 16.5333 15.0746C16.2794 15.1419 16.1213 15.1557 15.8598 15.1335C15.5936 15.111 15.2953 15.0012 14.6988 14.7816L12.6608 14.0313C11.7576 13.6987 11.3059 13.5325 10.8778 13.5645C10.516 13.5916 10.1682 13.7177 9.87116 13.9295C9.51963 14.1802 9.27321 14.5996 8.78041 15.4385L7.85675 17.0106C7.33648 17.8962 7.07633 18.339 7.03152 18.7925C6.99367 19.1754 7.06276 19.5613 7.23086 19.9061C7.42994 20.3144 7.82681 20.6354 8.62056 21.2776L10.0781 22.4568C10.5844 22.8663 10.8376 23.0712 10.9963 23.2907C11.1679 23.5282 11.2411 23.6824 11.3169 23.9667C11.3871 24.2298 11.3871 24.6532 11.3871 25.5C11.3871 26.3468 11.3871 26.7702 11.3169 27.0335C11.241 27.3178 11.1679 27.472 10.9964 27.7093C10.8376 27.929 10.5844 28.1337 10.0781 28.5434L8.62066 29.7224C7.82691 30.3647 7.43004 30.6856 7.23094 31.0941C7.06284 31.4388 6.99375 31.8247 7.0316 32.2076C7.07643 32.6611 7.33656 33.1037 7.85683 33.9894L8.78049 35.5616C9.27332 36.4004 9.51971 36.8199 9.87124 37.0705C10.1683 37.2824 10.5161 37.4084 10.8779 37.4356C11.306 37.4675 11.7576 37.3012 12.6609 36.9688L14.6989 36.2186C15.2953 35.9989 15.5936 35.889 15.8598 35.8665C16.1213 35.8445 16.2794 35.8582 16.5333 35.9255C16.7918 35.994 17.1399 36.1963 17.8362 36.6007C17.8894 36.6315 17.9428 36.6622 17.9965 36.6923C18.7243 37.1016 19.0883 37.3063 19.2849 37.5035C19.4781 37.697 19.5733 37.8332 19.6897 38.0824C19.8083 38.336 19.8642 38.666 19.9762 39.326L20.2899 41.1757C20.4564 42.1575 20.5397 42.6484 20.785 43.015C20.9923 43.3245 21.2791 43.5703 21.6142 43.7254C22.011 43.9091 22.5008 43.9091 23.48 43.9091H25.5201C26.4993 43.9091 26.9889 43.9091 27.3858 43.7254C27.721 43.5703 28.0077 43.3245 28.215 43.015C28.4603 42.6484 28.5436 42.1575 28.71 41.1757L29.0239 39.326C29.1357 38.666 29.1918 38.336 29.3102 38.0824C29.4267 37.8332 29.522 37.697 29.715 37.5035C29.9118 37.3063 30.2758 37.1016 31.0035 36.6923C31.0571 36.6622 31.1106 36.6315 31.1637 36.6007C31.86 36.1963 32.2081 35.994 32.4667 35.9255C32.7206 35.8582 32.8786 35.8445 33.1402 35.8665C33.4065 35.889 33.7046 35.9989 34.301 36.2186L36.3391 36.9688C37.2423 37.3014 37.6941 37.4677 38.1222 37.4356C38.4839 37.4084 38.8318 37.2824 39.1287 37.0705C39.4802 36.8199 39.7267 36.4004 40.2195 35.5616L41.1433 33.9894C41.6634 33.104 41.9236 32.6611 41.9685 32.2076C42.0063 31.8247 41.9371 31.4388 41.769 31.0941C41.5699 30.6858 41.173 30.3647 40.3794 29.7224L38.922 28.5434C38.4155 28.1337 38.1624 27.929 38.0037 27.7093C37.8322 27.472 37.759 27.3178 37.683 27.0335C37.6129 26.7704 37.6129 26.3468 37.6129 25.5C37.6129 24.6532 37.6129 24.2298 37.683 23.9667C37.759 23.6824 37.8322 23.5282 38.0037 23.2907C38.1624 23.0712 38.4155 22.8663 38.9218 22.4568L40.3794 21.2776C41.1732 20.6354 41.5701 20.3143 41.7692 19.906C41.9373 19.5613 42.0063 19.1753 41.9685 18.7925C41.9236 18.339 41.6636 17.8962 41.1433 17.0106L40.2195 15.4384C39.7267 14.5996 39.4804 14.1802 39.1289 13.9295C38.8318 13.7177 38.4841 13.5916 38.1222 13.5645C37.6941 13.5324 37.2425 13.6987 36.3391 14.0313L34.3012 14.7816C33.7046 15.0012 33.4065 15.111 33.1402 15.1335C32.8786 15.1557 32.7206 15.1418 32.4667 15.0746C32.2081 15.0061 31.86 14.8038 31.1639 14.3994C31.1106 14.3684 31.0571 14.3379 31.0037 14.3077C30.2758 13.8984 29.9118 13.6937 29.715 13.4966C29.522 13.303 29.4267 13.1669 29.3102 12.9178C29.1918 12.6641 29.1357 12.3341 29.0239 11.674L28.71 9.82425Z" fill="white" stroke="white" stroke-width="8" mask="url(#path-2-inside-1_459_25)"/>
</svg>
