<svg width="49" height="49" viewBox="0 0 49 49" fill="none" xmlns="http://www.w3.org/2000/svg">
<path d="M47.0638 11H1.93624C1.41914 11 1 11.437 1 11.9761V38.1137C1 38.6527 1.41914 39.0897 1.93624 39.0897H47.0638C47.5809 39.0897 48 38.6527 48 38.1137V11.9761C48 11.437 47.5809 11 47.0638 11ZM46.1275 37.1377H2.87247V12.9522H46.1274L46.1275 37.1377Z" fill="#5D6973"/>
<path d="M42.0083 18.291H41.4465C40.9294 18.291 40.5103 18.728 40.5103 19.2671C40.5103 19.8062 40.9295 20.2432 41.4465 20.2432H42.0083C42.5254 20.2432 42.9445 19.8062 42.9445 19.2671C42.9445 18.728 42.5254 18.291 42.0083 18.291Z" fill="#5D6973"/>
<path d="M37.7013 18.291H22.7663C22.2492 18.291 21.8301 18.728 21.8301 19.2671C21.8301 19.8062 22.2492 20.2432 22.7663 20.2432H37.7013C38.2184 20.2432 38.6375 19.8062 38.6375 19.2671C38.6375 18.728 38.2184 18.291 37.7013 18.291Z" fill="#5D6973"/>
<path d="M42.008 24.1074H22.7663C22.2492 24.1074 21.8301 24.5444 21.8301 25.0835C21.8301 25.6226 22.2492 26.0596 22.7663 26.0596H42.008C42.5251 26.0596 42.9443 25.6226 42.9443 25.0835C42.9443 24.5444 42.5251 24.1074 42.008 24.1074Z" fill="#5D6973"/>
<path d="M42.008 29.8467H22.7663C22.2492 29.8467 21.8301 30.2837 21.8301 30.8228C21.8301 31.3619 22.2492 31.7988 22.7663 31.7988H42.008C42.5251 31.7988 42.9443 31.3619 42.9443 30.8228C42.9443 30.2838 42.5251 29.8467 42.008 29.8467Z" fill="#5D6973"/>
<path d="M15.9671 25.7755C17.1096 24.8167 17.8377 23.3794 17.8377 21.7749C17.8377 18.8954 15.4951 16.5527 12.6156 16.5527C9.73604 16.5527 7.39342 18.8954 7.39342 21.7749C7.39342 23.3794 8.12153 24.8169 9.26403 25.7755C7.3739 26.7391 6.07568 28.7032 6.07568 30.9663V32.5605C6.07568 33.0996 6.51266 33.5366 7.05176 33.5366H18.1793C18.7184 33.5366 19.1553 33.0996 19.1553 32.5605V30.9663C19.1553 28.7033 17.8571 26.739 15.9671 25.7755ZM12.6156 18.5048C14.4186 18.5048 15.8854 19.9716 15.8854 21.7747C15.8854 23.5777 14.4186 25.0446 12.6156 25.0446C10.8125 25.0446 9.34567 23.5777 9.34567 21.7747C9.34567 19.9716 10.8125 18.5048 12.6156 18.5048ZM17.2032 31.5844H8.02784V30.9663C8.02784 28.8313 9.76466 27.0944 11.8997 27.0944H13.3313C15.4663 27.0944 17.2031 28.8313 17.2031 30.9663V31.5844H17.2032Z" fill="#5D6973"/>
</svg>
