<svg width="20" height="20" viewBox="0 0 20 20" fill="none" xmlns="http://www.w3.org/2000/svg">
<g clip-path="url(#clip0_509_4)">
<path d="M10.0002 19.1668C15.0628 19.1668 19.1668 15.0628 19.1668 10.0002C19.1668 4.93755 15.0628 0.833496 10.0002 0.833496M10.0002 19.1668C4.93755 19.1668 0.833496 15.0628 0.833496 10.0002C0.833496 4.93755 4.93755 0.833496 10.0002 0.833496M10.0002 19.1668C12.5002 19.1668 13.3335 15.0002 13.3335 10.0002C13.3335 5.00016 12.5002 0.833496 10.0002 0.833496M10.0002 19.1668C7.50016 19.1668 6.66683 15.0002 6.66683 10.0002C6.66683 5.00016 7.50016 0.833496 10.0002 0.833496M1.66683 13.3335H18.3335M1.66683 6.66683H18.3335" stroke="white" stroke-width="2"/>
</g>
<defs>
<clipPath id="clip0_509_4">
<rect width="20" height="20" fill="white"/>
</clipPath>
</defs>
</svg>
