<svg width="50" height="50" viewBox="0 0 50 50" fill="none" xmlns="http://www.w3.org/2000/svg">
<path d="M26.2387 40.2083H24.9347C24.643 40.2083 24.4065 39.9659 24.4065 39.6667V38.5793C24.4065 38.2933 24.1896 38.0582 23.9123 38.0265C23.252 37.9515 22.6133 37.8115 21.9961 37.6067C21.3965 37.4047 20.877 37.1652 20.4377 36.8876C20.2357 36.7601 20.1623 36.5012 20.2458 36.2737L21.1403 33.8345C21.2608 33.5063 21.6494 33.3806 21.9487 33.5504C22.3528 33.7793 22.7872 33.9751 23.2514 34.1376C23.9434 34.3662 24.6075 34.4805 25.2434 34.4805C25.7902 34.4805 26.181 34.4201 26.4153 34.299C26.6496 34.1644 26.7668 33.9694 26.7668 33.714C26.7668 33.4183 26.6106 33.1965 26.298 33.0486C25.9969 32.9007 25.4945 32.7393 24.7917 32.5646C23.8876 32.336 23.1344 32.0939 22.5318 31.8385C21.9292 31.5696 21.4046 31.1392 20.9583 30.5477C20.5118 29.9427 20.2887 29.1291 20.2887 28.1072C20.2887 26.924 20.6402 25.9089 21.3431 25.0617C21.9769 24.3104 22.8517 23.8023 23.968 23.5377C24.2194 23.4781 24.4065 23.2544 24.4065 22.9901V21.7917C24.4065 21.4924 24.643 21.25 24.9347 21.25H26.2387C26.5304 21.25 26.7668 21.4924 26.7668 21.7917V22.9216C26.7668 23.1984 26.9705 23.4289 27.237 23.4714C28.215 23.6271 29.0743 23.922 29.8148 24.3562C30.025 24.4794 30.1084 24.7416 30.0277 24.9756L29.1905 27.4047C29.0798 27.7267 28.7101 27.8629 28.4127 27.7091C27.4697 27.2216 26.5697 26.9779 25.7122 26.9779C24.6966 26.9779 24.1888 27.2736 24.1888 27.8651C24.1888 28.1476 24.3396 28.3626 24.6408 28.5108C24.9422 28.6451 25.4387 28.793 26.1307 28.9544C27.0233 29.1562 27.7768 29.3912 28.3905 29.6602C29.0042 29.9156 29.5342 30.3392 29.9808 30.9309C30.4383 31.5224 30.6671 32.3292 30.6671 33.3511C30.6671 34.4805 30.3267 35.4687 29.6458 36.3159C29.0529 37.0542 28.232 37.571 27.1837 37.8664C26.9426 37.9344 26.7668 38.1532 26.7668 38.4095V39.6667C26.7668 39.9659 26.5304 40.2083 26.2387 40.2083Z" fill="white"/>
<path fill-rule="evenodd" clip-rule="evenodd" d="M19.7762 5H31.2101C34.1386 5 32.5304 9.50667 31.3447 12.2556L29.9954 15.4081L29.8131 15.8333C31.0912 15.7697 32.3551 16.1327 33.4149 16.8679C37.3796 20.5886 40.5974 25.0682 42.887 30.0548C43.7792 31.8986 44.1331 33.9678 43.9062 36.0131C43.6337 41.2264 39.5558 45.3807 34.4712 45.625H16.515C11.429 45.388 7.34504 41.238 7.06684 36.024C6.83985 33.9786 7.1938 31.9095 8.08612 30.0656C10.3784 25.0742 13.6006 20.5905 17.5712 16.8679C18.6312 16.1327 19.895 15.7697 21.173 15.8333L20.9617 15.3431L19.6415 12.2556C18.4611 9.50667 16.8451 5 19.7762 5Z" stroke="white" stroke-width="3" stroke-linecap="round" stroke-linejoin="round"/>
<path d="M29.8131 17.864C30.9348 17.864 31.8443 16.9546 31.8443 15.8327C31.8443 14.7109 30.9348 13.8015 29.8131 13.8015V17.864ZM21.1729 13.8015C20.0512 13.8015 19.1417 14.7109 19.1417 15.8327C19.1417 16.9546 20.0512 17.864 21.1729 17.864V13.8015ZM37.0695 14.8845C38.0415 14.3245 38.3757 13.0826 37.8156 12.1105C37.2556 11.1384 36.0138 10.8043 35.0418 11.3643L37.0695 14.8845ZM29.9953 15.4075L30.3872 17.4006L30.3932 17.3995L29.9953 15.4075ZM20.9617 15.3425L21.3823 13.3552L21.3639 13.3514L20.9617 15.3425ZM15.9131 11.3466C14.9312 10.804 13.6954 11.16 13.1527 12.1419C12.6101 13.1238 12.9662 14.3596 13.948 14.9022L15.9131 11.3466ZM29.8131 13.8015H21.1729V17.864H29.8131V13.8015ZM35.0418 11.3643C33.3436 12.3425 31.5058 13.0346 29.5975 13.4156L30.3932 17.3995C32.7367 16.9315 34.9908 16.082 37.0695 14.8845L35.0418 11.3643ZM29.6034 13.4144C26.8859 13.9488 24.0925 13.9286 21.3823 13.3552L20.5412 17.3298C23.7867 18.0165 27.1326 18.0406 30.3872 17.4006L29.6034 13.4144ZM21.3639 13.3514C19.4606 12.9672 17.6233 12.2917 15.9131 11.3466L13.948 14.9022C16.0194 16.047 18.2481 16.8669 20.5597 17.3336L21.3639 13.3514Z" fill="white"/>
</svg>
