<svg width="49" height="49" viewBox="0 0 49 49" fill="none" xmlns="http://www.w3.org/2000/svg">
<g clip-path="url(#clip0_405_671)">
<path d="M46.666 19.6503C46.9421 19.6503 47.166 19.8742 47.166 20.1503V29.1844C47.166 29.4606 46.9421 29.6844 46.666 29.6844H30.1972C29.921 29.6844 29.6972 29.9083 29.6972 30.1844V45.908C29.6972 46.1841 29.4733 46.408 29.1972 46.408H19.7159C19.4397 46.408 19.2159 46.1841 19.2159 45.908V30.1844C19.2159 29.9083 18.992 29.6844 18.7159 29.6844H2.24707C1.97093 29.6844 1.74707 29.4606 1.74707 29.1844V20.1503C1.74707 19.8742 1.97093 19.6503 2.24707 19.6503H18.7159C18.992 19.6503 19.2159 19.4264 19.2159 19.1503V3.42676C19.2159 3.15061 19.4397 2.92676 19.7159 2.92676H29.1972C29.4733 2.92676 29.6972 3.15062 29.6972 3.42676V19.1503C29.6972 19.4265 29.921 19.6503 30.1972 19.6503H46.666Z" fill="#5D6973"/>
</g>
<defs>
<clipPath id="clip0_405_671">
<rect width="49" height="49" fill="white"/>
</clipPath>
</defs>
</svg>
