<svg width="49" height="49" viewBox="0 0 49 49" fill="none" xmlns="http://www.w3.org/2000/svg">
<path d="M20.4168 40.8337H8.16683C7.08424 40.8324 6.04635 40.4018 5.28084 39.6363C4.51534 38.8708 4.08473 37.8329 4.0835 36.7503V12.2503C4.08473 11.1677 4.51534 10.1298 5.28084 9.36434C6.04635 8.59883 7.08424 8.16823 8.16683 8.16699H20.4168C20.9583 8.16699 21.4776 8.3821 21.8605 8.76498C22.2434 9.14787 22.4585 9.66718 22.4585 10.2087C22.4585 10.7501 22.2434 11.2694 21.8605 11.6523C21.4776 12.0352 20.9583 12.2503 20.4168 12.2503H8.16683V36.7503H20.4168C20.9583 36.7503 21.4776 36.9654 21.8605 37.3483C22.2434 37.7312 22.4585 38.2505 22.4585 38.792C22.4585 39.3335 22.2434 39.8528 21.8605 40.2357C21.4776 40.6186 20.9583 40.8337 20.4168 40.8337Z" fill="#5D6973"/>
<path d="M26.5417 44.9166C26.0003 44.9164 25.4811 44.7012 25.0983 44.3183C24.7155 43.9355 24.5003 43.4164 24.5 42.875V6.12497C24.5001 5.81472 24.5708 5.50857 24.7069 5.22977C24.8431 4.95097 25.0409 4.70687 25.2855 4.516C25.5301 4.32514 25.815 4.19253 26.1185 4.12826C26.422 4.064 26.7362 4.06975 27.0371 4.1451L43.3705 8.22844C43.8121 8.3388 44.2041 8.59359 44.4842 8.95232C44.7644 9.31105 44.9166 9.75314 44.9167 10.2083V16.758C44.9167 17.2995 44.7016 17.8188 44.3187 18.2016C43.9358 18.5845 43.4165 18.7996 42.875 18.7996C42.3335 18.7996 41.8142 18.5845 41.4313 18.2016C41.0484 17.8188 40.8333 17.2995 40.8333 16.758V11.8034L28.5833 8.74085V40.2591L40.8333 37.1966V24.9246C40.8333 24.3832 41.0484 23.8638 41.4313 23.481C41.8142 23.0981 42.3335 22.883 42.875 22.883C43.4165 22.883 43.9358 23.0981 44.3187 23.481C44.7016 23.8638 44.9167 24.3832 44.9167 24.9246V38.7916C44.9166 39.2468 44.7644 39.6889 44.4842 40.0476C44.2041 40.4063 43.8121 40.6611 43.3705 40.7715L27.0371 44.8548C26.8752 44.8961 26.7088 44.9169 26.5417 44.9166Z" fill="#5D6973"/>
<path d="M34.7082 28.5837C34.44 28.5837 34.1745 28.531 33.9268 28.4284C33.679 28.3258 33.4539 28.1754 33.2643 27.9858C33.0747 27.7962 32.9244 27.5711 32.8218 27.3234C32.7192 27.0756 32.6664 26.8101 32.6665 26.542V22.4587C32.6665 21.9172 32.8816 21.3979 33.2645 21.015C33.6474 20.6321 34.1667 20.417 34.7082 20.417C35.2497 20.417 35.769 20.6321 36.1518 21.015C36.5347 21.3979 36.7498 21.9172 36.7498 22.4587V26.542C36.7499 26.8101 36.6971 27.0756 36.5946 27.3234C36.492 27.5711 36.3416 27.7962 36.152 27.9858C35.9624 28.1754 35.7373 28.3258 35.4896 28.4284C35.2418 28.531 34.9763 28.5837 34.7082 28.5837Z" fill="#5D6973"/>
<path d="M44.9168 18.8851H42.8752C42.3337 18.8851 41.8144 18.67 41.4315 18.2871C41.0486 17.9042 40.8335 17.3849 40.8335 16.8434C40.8335 16.3019 41.0486 15.7826 41.4315 15.3997C41.8144 15.0169 42.3337 14.8018 42.8752 14.8018H44.9168C45.4583 14.8018 45.9776 15.0169 46.3605 15.3997C46.7434 15.7826 46.9585 16.3019 46.9585 16.8434C46.9585 17.3849 46.7434 17.9042 46.3605 18.2871C45.9776 18.67 45.4583 18.8851 44.9168 18.8851Z" fill="#5D6973"/>
<path d="M44.9168 34.7083H42.8752C42.3337 34.7083 41.8144 34.4932 41.4315 34.1103C41.0486 33.7275 40.8335 33.2082 40.8335 32.6667C40.8335 32.1252 41.0486 31.6059 41.4315 31.223C41.8144 30.8401 42.3337 30.625 42.8752 30.625H44.9168C45.4583 30.625 45.9776 30.8401 46.3605 31.223C46.7434 31.6059 46.9585 32.1252 46.9585 32.6667C46.9585 33.2082 46.7434 33.7275 46.3605 34.1103C45.9776 34.4932 45.4583 34.7083 44.9168 34.7083Z" fill="#5D6973"/>
<path d="M20.4167 32.6663H14.2917C13.7502 32.6663 13.2309 32.4512 12.848 32.0684C12.4651 31.6855 12.25 31.1662 12.25 30.6247C12.25 30.0832 12.4651 29.5639 12.848 29.181C13.2309 28.7981 13.7502 28.583 14.2917 28.583H20.4167C20.9581 28.583 21.4775 28.7981 21.8603 29.181C22.2432 29.5639 22.4583 30.0832 22.4583 30.6247C22.4583 31.1662 22.2432 31.6855 21.8603 32.0684C21.4775 32.4512 20.9581 32.6663 20.4167 32.6663Z" fill="#5D6973"/>
</svg>
