<svg width="36" height="49" viewBox="0 0 36 49" fill="none" xmlns="http://www.w3.org/2000/svg">
<path d="M8.52639 1.88477H27.4738C30.0899 1.88477 32.2106 4.08794 32.2106 6.80571V41.2523C32.2106 43.9701 30.0899 46.1732 27.4738 46.1732H8.52639C5.91031 46.1732 3.78955 43.9701 3.78955 41.2523V6.80571C3.78955 4.08794 5.91031 1.88477 8.52639 1.88477Z" stroke="#5D6973" stroke-width="3" stroke-linecap="round" stroke-linejoin="round"/>
<path d="M24.5659 42.4043H12.3159" stroke="#5D6973" stroke-width="3" stroke-linecap="round"/>
<path d="M24.4434 1.88477L22.5692 3.05192H14.3004L12.3159 1.88477" stroke="#5D6973" stroke-width="3" stroke-linecap="round"/>
<path d="M13.9748 19.5556H25L23.5 25H14.7826M24.25 28.1111H15.25L13.75 18H11.5M11.5 21.8889H10M12.25 24.2222H10M13 26.5556H10M16 31.2222C16 31.6518 15.6642 32 15.25 32C14.8358 32 14.5 31.6518 14.5 31.2222C14.5 30.7927 14.8358 30.4444 15.25 30.4444C15.6642 30.4444 16 30.7927 16 31.2222ZM24.25 31.2222C24.25 31.6518 23.9142 32 23.5 32C23.0858 32 22.75 31.6518 22.75 31.2222C22.75 30.7927 23.0858 30.4444 23.5 30.4444C23.9142 30.4444 24.25 30.7927 24.25 31.2222Z" stroke="#5D6973" stroke-width="2" stroke-linecap="round" stroke-linejoin="round"/>
</svg>
