<svg width="512" height="512" viewBox="0 0 512 512" fill="none" xmlns="http://www.w3.org/2000/svg">
<g clip-path="url(#clip0_488_44)">
<path d="M199 404C188 404 189 400 186 390L154 285L399 141" fill="#DFDFDF"/>
<path d="M199 404C206 404 210 400 215 396L260 353L204 319" fill="#6C7C89"/>
<path d="M204 319L339 418C353 427 365 422 369 404L424 146C429 124 415 114 400 121L79 245C58 253 58 266 75 271L158 297L348 176C357 171 365 173 359 180" fill="white"/>
</g>
<defs>
<clipPath id="clip0_488_44">
<rect width="512" height="512" fill="white"/>
</clipPath>
</defs>
</svg>
