<svg width="512" height="512" viewBox="0 0 512 512" fill="none" xmlns="http://www.w3.org/2000/svg">
<path d="M272.694 288.17C272.694 288.17 280.69 288.844 284.98 283.546L293.38 272.994C297.423 267.786 307.17 264.463 316.738 269.762C323.904 273.849 330.86 278.292 337.582 283.074C343.915 287.721 356.897 298.565 356.942 298.565C363.141 303.796 364.579 311.451 360.356 319.533L360.311 319.713C355.672 327.754 349.781 335.007 342.86 341.197L342.702 341.309C336.698 346.323 330.791 349.174 324.981 349.863C324.13 350.018 323.263 350.078 322.398 350.042C319.844 350.063 317.303 349.669 314.874 348.875L314.672 348.605C305.733 346.069 290.819 339.76 265.956 326.066C251.576 318.227 237.887 309.185 225.034 299.036C218.587 293.953 212.438 288.503 206.616 282.715L206.01 282.109L205.381 281.48L204.752 280.874L204.146 280.246C198.355 274.427 192.903 268.28 187.817 261.837C177.665 248.989 168.619 235.306 160.775 220.933C147.074 196.081 140.763 181.197 138.225 172.217L137.955 172.037C137.169 169.609 136.782 167.069 136.81 164.517C136.764 163.653 136.816 162.787 136.967 161.935C137.686 156.143 140.546 150.231 145.547 144.2L145.659 144.043C151.85 137.123 159.106 131.234 167.154 126.599L167.311 126.577C175.396 122.356 183.078 123.793 188.289 129.944C188.334 129.967 199.159 142.965 203.786 149.296C208.571 156.021 213.017 162.982 217.105 170.152C222.428 179.693 219.104 189.459 213.871 193.5L203.314 201.873C197.991 206.184 198.688 214.176 198.688 214.176C198.688 214.176 214.32 273.286 272.694 288.17ZM252.974 111.378C252.224 111.369 251.48 111.509 250.784 111.789C250.088 112.069 249.455 112.484 248.92 113.01C248.386 113.536 247.961 114.162 247.67 114.853C247.378 115.544 247.227 116.286 247.224 117.035C247.221 117.781 247.365 118.52 247.648 119.211C247.931 119.901 248.347 120.529 248.873 121.058C249.398 121.588 250.023 122.009 250.711 122.297C251.4 122.585 252.138 122.735 252.884 122.738C283.273 122.962 308.001 132.773 328.261 152.506C348.34 172.082 358.604 198.685 358.874 233.572C358.877 234.318 359.027 235.056 359.315 235.744C359.603 236.432 360.024 237.057 360.554 237.582C361.084 238.108 361.712 238.523 362.402 238.806C363.093 239.089 363.832 239.233 364.579 239.23C365.327 239.227 366.067 239.076 366.757 238.787C367.447 238.497 368.072 238.074 368.598 237.543C369.124 237.011 369.54 236.38 369.821 235.687C370.103 234.994 370.245 234.253 370.239 233.505C369.947 196.373 358.627 166.245 336.189 144.379C313.953 122.715 285.833 111.603 252.974 111.378ZM263.373 140.855C262.628 140.8 261.88 140.892 261.171 141.126C260.461 141.36 259.805 141.732 259.24 142.22C258.675 142.708 258.211 143.302 257.876 143.97C257.541 144.637 257.34 145.363 257.286 146.108C257.231 146.852 257.324 147.601 257.558 148.309C257.792 149.018 258.164 149.674 258.652 150.239C259.14 150.804 259.735 151.267 260.403 151.602C261.07 151.938 261.797 152.138 262.542 152.192C284.239 153.786 300.32 160.88 312.067 173.676C323.836 186.54 329.428 202.188 329.002 221.741C328.987 222.487 329.119 223.229 329.391 223.924C329.663 224.619 330.069 225.253 330.586 225.791C331.104 226.329 331.722 226.759 332.406 227.058C333.09 227.357 333.826 227.519 334.572 227.533C336.071 227.564 337.522 227 338.608 225.966C339.693 224.931 340.325 223.509 340.367 222.011C340.838 200.055 334.168 180.995 320.444 166.021C306.586 150.89 287.203 142.583 263.396 140.855H263.373ZM271.885 171.319C271.139 171.28 270.392 171.388 269.688 171.638C268.983 171.887 268.335 172.274 267.78 172.774C267.225 173.275 266.774 173.88 266.453 174.554C266.133 175.229 265.948 175.961 265.911 176.707C265.831 178.21 266.352 179.684 267.359 180.803C268.365 181.923 269.775 182.598 271.279 182.679C281.072 183.195 287.675 185.956 292.167 190.559C296.614 195.183 299.354 202.143 299.871 212.357C299.947 213.856 300.613 215.264 301.724 216.274C302.835 217.284 304.3 217.813 305.8 217.745C307.296 217.67 308.701 217.007 309.711 215.901C310.72 214.796 311.252 213.337 311.191 211.841C310.584 199.786 307.148 189.75 300.32 182.656C293.47 175.607 283.632 171.925 271.885 171.319ZM420.931 74.7848C409.769 64.5028 364.646 31.7709 264.159 31.3219C264.159 31.3219 145.682 24.1829 87.914 77.142C55.7734 109.29 44.4535 156.323 43.2631 214.647C42.0727 272.95 40.523 382.235 145.906 411.869H146.019L145.951 457.105C145.951 457.105 145.277 475.402 157.338 479.129C171.938 483.664 180.472 469.745 194.398 454.748C202.057 446.509 212.613 434.431 220.564 425.182C292.661 431.243 348.093 417.392 354.382 415.326C368.936 410.612 451.298 400.06 464.661 290.797C478.497 178.166 457.991 106.911 420.931 74.7848ZM433.15 282.715C421.83 373.951 355.033 379.698 342.725 383.65C337.492 385.333 288.798 397.434 227.572 393.438C227.572 393.438 181.955 448.44 167.693 462.763C165.469 465.008 162.864 465.906 161.112 465.457C158.641 464.851 157.967 461.955 158.012 457.712L158.394 382.572C69.2271 357.832 74.4379 264.8 75.4486 216.107C76.4593 167.39 85.6231 127.497 112.822 100.647C161.673 56.4209 262.295 63.0211 262.295 63.0211C347.284 63.4027 388.027 88.9956 397.46 97.5489C428.815 124.399 444.807 188.605 433.127 282.693L433.15 282.715Z" fill="white"/>
</svg>
