<svg width="49" height="49" viewBox="0 0 49 49" fill="none" xmlns="http://www.w3.org/2000/svg">
<path d="M41.878 5.72754H6.09082C5.53854 5.72754 5.09082 6.17525 5.09082 6.72754V42.5147C5.09082 43.067 5.53854 43.5147 6.09082 43.5147H41.878C42.4303 43.5147 42.878 43.067 42.878 42.5147V6.72754C42.878 6.17525 42.4303 5.72754 41.878 5.72754Z" stroke="white" stroke-width="4" stroke-miterlimit="10"/>
<path d="M42.878 15.025C42.878 15.5773 42.4303 16.025 41.878 16.025H31.6314H28.2108H6.09082C5.53854 16.025 5.09082 15.5773 5.09082 15.025V6.72754C5.09082 6.17525 5.53854 5.72754 6.09082 5.72754H41.878C42.4303 5.72754 42.878 6.17525 42.878 6.72754V15.025Z" stroke="white" stroke-width="4" stroke-miterlimit="10"/>
<path d="M10.249 10.8848H13.6696" stroke="white" stroke-width="4" stroke-miterlimit="10"/>
<path d="M17.1074 10.8848H20.5459" stroke="white" stroke-width="4" stroke-miterlimit="10"/>
<path d="M23.9844 10.8848H27.4228" stroke="white" stroke-width="4" stroke-miterlimit="10"/>
<mask id="path-6-inside-1_405_643" fill="white">
<path fill-rule="evenodd" clip-rule="evenodd" d="M23.9931 26.3047C22.2276 26.3047 20.7964 27.7359 20.7964 29.5014C20.7964 31.2669 22.2276 32.6981 23.9931 32.6981C25.7585 32.6981 27.1898 31.2669 27.1898 29.5014C27.1898 27.7359 25.7585 26.3047 23.9931 26.3047ZM22.3947 29.5014C22.3947 28.6187 23.1103 27.903 23.9931 27.903C24.8758 27.903 25.5914 28.6187 25.5914 29.5014C25.5914 30.3841 24.8758 31.0997 23.9931 31.0997C23.1103 31.0997 22.3947 30.3841 22.3947 29.5014Z"/>
</mask>
<path fill-rule="evenodd" clip-rule="evenodd" d="M23.9931 26.3047C22.2276 26.3047 20.7964 27.7359 20.7964 29.5014C20.7964 31.2669 22.2276 32.6981 23.9931 32.6981C25.7585 32.6981 27.1898 31.2669 27.1898 29.5014C27.1898 27.7359 25.7585 26.3047 23.9931 26.3047ZM22.3947 29.5014C22.3947 28.6187 23.1103 27.903 23.9931 27.903C24.8758 27.903 25.5914 28.6187 25.5914 29.5014C25.5914 30.3841 24.8758 31.0997 23.9931 31.0997C23.1103 31.0997 22.3947 30.3841 22.3947 29.5014Z" fill="white"/>
<path d="M23.9931 26.3047V22.3047C20.0185 22.3047 16.7964 25.5268 16.7964 29.5014H20.7964H24.7964C24.7964 29.945 24.4367 30.3047 23.9931 30.3047V26.3047ZM20.7964 29.5014H16.7964C16.7964 33.4761 20.0185 36.6981 23.9931 36.6981V32.6981V28.6981C24.4367 28.6981 24.7964 29.0577 24.7964 29.5014H20.7964ZM23.9931 32.6981V36.6981C27.9676 36.6981 31.1898 33.4761 31.1898 29.5014H27.1898H23.1898C23.1898 29.0577 23.5494 28.6981 23.9931 28.6981V32.6981ZM27.1898 29.5014H31.1898C31.1898 25.5267 27.9676 22.3047 23.9931 22.3047V26.3047V30.3047C23.5494 30.3047 23.1898 29.9451 23.1898 29.5014H27.1898ZM22.3947 29.5014H26.3947C26.3947 30.8277 25.3196 31.903 23.9931 31.903V27.903V23.903C20.9011 23.903 18.3947 26.4097 18.3947 29.5014H22.3947ZM23.9931 27.903V31.903C22.6666 31.903 21.5914 30.8277 21.5914 29.5014H25.5914H29.5914C29.5914 26.4097 27.0851 23.903 23.9931 23.903V27.903ZM25.5914 29.5014H21.5914C21.5914 28.175 22.6667 27.0997 23.9931 27.0997V31.0997V35.0997C27.085 35.0997 29.5914 32.5933 29.5914 29.5014H25.5914ZM23.9931 31.0997V27.0997C25.3194 27.0997 26.3947 28.175 26.3947 29.5014H22.3947H18.3947C18.3947 32.5933 20.9012 35.0997 23.9931 35.0997V31.0997Z" fill="white" mask="url(#path-6-inside-1_405_643)"/>
<mask id="path-8-inside-2_405_643" fill="white">
<path fill-rule="evenodd" clip-rule="evenodd" d="M23.0119 20.7841C23.1912 20.7704 23.3926 20.7705 23.5568 20.7705H24.4303C24.5945 20.7705 24.7959 20.7704 24.9753 20.7841C25.1873 20.8004 25.4811 20.8416 25.7961 20.985C26.1944 21.1661 26.5353 21.4531 26.7815 21.8146C26.9764 22.1006 27.067 22.383 27.1191 22.5891C27.1631 22.7635 27.1973 22.9618 27.2251 23.1236L27.3378 23.7769L27.3401 23.7781C27.3678 23.7935 27.3953 23.809 27.4228 23.8247L27.4249 23.8258L28.171 23.5558C28.3224 23.501 28.5085 23.4336 28.6791 23.3861C28.8811 23.3299 29.1664 23.2694 29.5058 23.2944C29.9357 23.326 30.349 23.4733 30.7019 23.7206C30.9806 23.9159 31.1634 24.1432 31.2842 24.3144C31.3864 24.4591 31.4878 24.6291 31.5704 24.7673L31.97 25.4358C32.0575 25.5818 32.164 25.7599 32.2463 25.9256C32.3431 26.1207 32.4614 26.4028 32.4972 26.7578C32.5421 27.2049 32.46 27.6556 32.2603 28.0581C32.1017 28.3777 31.8914 28.6001 31.732 28.7486C31.5966 28.8746 31.4341 29.0037 31.3008 29.1095L30.7629 29.5278L31.3008 29.9461C31.4341 30.052 31.5966 30.181 31.732 30.3071C31.8914 30.4555 32.1017 30.6779 32.2602 30.9975C32.46 31.4 32.5421 31.8507 32.4971 32.2978C32.4614 32.6528 32.3431 32.935 32.2462 33.1301C32.1639 33.2958 32.0574 33.4738 31.97 33.6199L31.5702 34.2885C31.4877 34.4267 31.3863 34.5965 31.2842 34.7412C31.1633 34.9125 30.9806 35.1397 30.7019 35.335C30.349 35.5824 29.9357 35.7296 29.5058 35.7613C29.1664 35.7863 28.8811 35.7257 28.6791 35.6695C28.5085 35.622 28.3223 35.5547 28.1709 35.4998L27.4248 35.2298L27.4228 35.231C27.3953 35.2467 27.3678 35.2622 27.3401 35.2775L27.3378 35.2787L27.2251 35.932C27.1973 36.0938 27.1631 36.2922 27.1191 36.4665C27.067 36.6726 26.9764 36.955 26.7815 37.2411C26.5353 37.6026 26.1944 37.8896 25.7961 38.0707C25.4811 38.214 25.1873 38.2553 24.9753 38.2716C24.7959 38.2853 24.5945 38.2852 24.4303 38.2851H23.5568C23.3926 38.2852 23.1912 38.2853 23.0119 38.2716C22.7999 38.2553 22.5061 38.214 22.191 38.0707C21.7928 37.8896 21.4519 37.6026 21.2056 37.2411C21.0108 36.955 20.9201 36.6726 20.8681 36.4665C20.8241 36.2922 20.7899 36.0938 20.762 35.932L20.6493 35.2787L20.6471 35.2775C20.6194 35.2622 20.5918 35.2467 20.5643 35.231L20.5623 35.2298L19.8162 35.4998C19.6648 35.5546 19.4787 35.622 19.3081 35.6695C19.1061 35.7257 18.8208 35.7862 18.4813 35.7613C18.0515 35.7296 17.6382 35.5824 17.2853 35.335C17.0066 35.1397 16.8238 34.9125 16.703 34.7412C16.6009 34.5965 16.4994 34.4266 16.4168 34.2884L16.0171 33.6199C15.9298 33.4738 15.8232 33.2958 15.7409 33.1301C15.6441 32.935 15.5258 32.6528 15.4901 32.2978C15.4451 31.8507 15.5272 31.4 15.7269 30.9975C15.8855 30.6779 16.0957 30.4555 16.2552 30.3071C16.3906 30.181 16.5531 30.052 16.6863 29.9461L17.2071 29.5321V29.5236L16.6863 29.1095C16.553 29.0037 16.3906 28.8746 16.2551 28.7486C16.0957 28.6001 15.8855 28.3777 15.7269 28.0581C15.5271 27.6556 15.445 27.2049 15.49 26.7579C15.5257 26.4029 15.644 26.1207 15.7409 25.9256C15.8232 25.7599 15.9297 25.5818 16.0171 25.4358L16.4168 24.7672C16.4993 24.629 16.6008 24.4591 16.7029 24.3144C16.8238 24.1432 17.0065 23.9159 17.2852 23.7206C17.6382 23.4733 18.0514 23.326 18.4813 23.2944C18.8207 23.2694 19.106 23.3299 19.308 23.3861C19.4786 23.4336 19.6648 23.501 19.8161 23.5559L20.5623 23.8258L20.5643 23.8247C20.5918 23.809 20.6194 23.7935 20.6471 23.7781L20.6493 23.7769L20.762 23.1236C20.7899 22.9618 20.8241 22.7635 20.8681 22.5891C20.9201 22.383 21.0108 22.1006 21.2056 21.8146C21.4519 21.4531 21.7928 21.1661 22.191 20.985C22.5061 20.8416 22.7999 20.8004 23.0119 20.7841ZM25.6611 23.4266C25.5951 23.0445 25.5621 22.8534 25.465 22.7108C25.3829 22.5903 25.2693 22.4946 25.1366 22.4342C24.9794 22.3628 24.7854 22.3628 24.3976 22.3628H23.5896C23.2017 22.3628 23.0077 22.3628 22.8506 22.4342C22.7179 22.4946 22.6043 22.5903 22.5222 22.7108C22.425 22.8534 22.392 23.0445 22.3261 23.4266L22.2018 24.1466C22.1575 24.4035 22.1353 24.5319 22.0884 24.6306C22.0422 24.7276 22.0045 24.7806 21.928 24.8559C21.8501 24.9326 21.706 25.0123 21.4177 25.1716C21.3964 25.1834 21.3753 25.1953 21.3542 25.2073C21.0785 25.3647 20.9406 25.4435 20.8382 25.4701C20.7376 25.4963 20.675 25.5017 20.5714 25.493C20.466 25.4843 20.3479 25.4415 20.1116 25.3561L19.3044 25.064C18.9467 24.9346 18.7678 24.8699 18.5982 24.8824C18.4549 24.8929 18.3171 24.942 18.1995 25.0244C18.0603 25.122 17.9627 25.2852 17.7675 25.6117L17.4017 26.2236C17.1956 26.5683 17.0925 26.7407 17.0748 26.9172C17.0598 27.0662 17.0872 27.2164 17.1538 27.3506C17.2326 27.5095 17.3898 27.6345 17.7042 27.8844L18.2815 28.3433C18.482 28.5027 18.5823 28.5825 18.6451 28.6679C18.7131 28.7603 18.7421 28.8204 18.7721 28.931C18.7999 29.0334 18.7999 29.1982 18.7999 29.5278C18.7999 29.8574 18.7999 30.0222 18.7721 30.1247C18.7421 30.2353 18.7131 30.2953 18.6452 30.3877C18.5823 30.4732 18.482 30.5529 18.2815 30.7124L17.7042 31.1712C17.3898 31.4212 17.2326 31.5461 17.1538 31.7051C17.0872 31.8393 17.0598 31.9895 17.0748 32.1385C17.0926 32.315 17.1956 32.4873 17.4017 32.832L17.7675 33.4439C17.9627 33.7704 18.0603 33.9337 18.1995 34.0312C18.3172 34.1137 18.4549 34.1627 18.5982 34.1733C18.7678 34.1857 18.9467 34.121 19.3045 33.9916L20.1116 33.6996C20.3479 33.6141 20.466 33.5714 20.5714 33.5626C20.675 33.554 20.7376 33.5594 20.8382 33.5855C20.9406 33.6122 21.0785 33.6909 21.3542 33.8483C21.3753 33.8604 21.3965 33.8723 21.4177 33.884C21.706 34.0433 21.8501 34.123 21.928 34.1997C22.0045 34.2751 22.0422 34.3281 22.0884 34.425C22.1353 34.5238 22.1575 34.6522 22.2018 34.9091L22.3261 35.629C22.392 36.0112 22.425 36.2022 22.5222 36.3449C22.6043 36.4653 22.7179 36.561 22.8506 36.6214C23.0077 36.6929 23.2017 36.6929 23.5896 36.6929H24.3976C24.7854 36.6929 24.9794 36.6929 25.1366 36.6214C25.2693 36.561 25.3829 36.4653 25.465 36.3449C25.5621 36.2022 25.5951 36.0112 25.6611 35.629L25.7854 34.9091C25.8297 34.6522 25.8519 34.5238 25.8988 34.425C25.9449 34.3281 25.9826 34.2751 26.0591 34.1997C26.1371 34.123 26.2812 34.0433 26.5694 33.884C26.5907 33.8723 26.6119 33.8604 26.6329 33.8483C26.9087 33.6909 27.0465 33.6122 27.1489 33.5855C27.2495 33.5594 27.3121 33.554 27.4157 33.5626C27.5212 33.5714 27.6393 33.6141 27.8755 33.6996L28.6827 33.9916C29.0404 34.1211 29.2194 34.1858 29.3889 34.1733C29.5322 34.1627 29.67 34.1137 29.7876 34.0312C29.9268 33.9337 30.0245 33.7704 30.2197 33.4439L30.5855 32.832C30.7915 32.4874 30.8946 32.315 30.9123 32.1385C30.9273 31.9895 30.8999 31.8393 30.8333 31.7051C30.7545 31.5462 30.5973 31.4212 30.283 31.1712L29.7057 30.7124C29.5051 30.5529 29.4049 30.4732 29.342 30.3877C29.2741 30.2953 29.2451 30.2353 29.215 30.1247C29.1872 30.0223 29.1872 29.8574 29.1872 29.5278C29.1872 29.1982 29.1872 29.0334 29.215 28.931C29.2451 28.8204 29.2741 28.7603 29.342 28.6679C29.4049 28.5825 29.5051 28.5027 29.7057 28.3433L30.283 27.8844C30.5974 27.6344 30.7546 27.5095 30.8334 27.3506C30.9 27.2164 30.9273 27.0662 30.9123 26.9171C30.8946 26.7406 30.7916 26.5683 30.5855 26.2236L30.2197 25.6117C30.0245 25.2852 29.9269 25.122 29.7877 25.0244C29.67 24.942 29.5323 24.8929 29.3889 24.8823C29.2194 24.8699 29.0405 24.9346 28.6827 25.064L27.8756 25.3561C27.6393 25.4415 27.5212 25.4843 27.4157 25.493C27.3121 25.5017 27.2495 25.4963 27.1489 25.4701C27.0465 25.4434 26.9087 25.3647 26.633 25.2073C26.6119 25.1953 26.5907 25.1834 26.5695 25.1716C26.2812 25.0123 26.1371 24.9326 26.0591 24.8559C25.9826 24.7806 25.9449 24.7276 25.8988 24.6306C25.8519 24.5319 25.8297 24.4035 25.7854 24.1466L25.6611 23.4266Z"/>
</mask>
<path fill-rule="evenodd" clip-rule="evenodd" d="M23.0119 20.7841C23.1912 20.7704 23.3926 20.7705 23.5568 20.7705H24.4303C24.5945 20.7705 24.7959 20.7704 24.9753 20.7841C25.1873 20.8004 25.4811 20.8416 25.7961 20.985C26.1944 21.1661 26.5353 21.4531 26.7815 21.8146C26.9764 22.1006 27.067 22.383 27.1191 22.5891C27.1631 22.7635 27.1973 22.9618 27.2251 23.1236L27.3378 23.7769L27.3401 23.7781C27.3678 23.7935 27.3953 23.809 27.4228 23.8247L27.4249 23.8258L28.171 23.5558C28.3224 23.501 28.5085 23.4336 28.6791 23.3861C28.8811 23.3299 29.1664 23.2694 29.5058 23.2944C29.9357 23.326 30.349 23.4733 30.7019 23.7206C30.9806 23.9159 31.1634 24.1432 31.2842 24.3144C31.3864 24.4591 31.4878 24.6291 31.5704 24.7673L31.97 25.4358C32.0575 25.5818 32.164 25.7599 32.2463 25.9256C32.3431 26.1207 32.4614 26.4028 32.4972 26.7578C32.5421 27.2049 32.46 27.6556 32.2603 28.0581C32.1017 28.3777 31.8914 28.6001 31.732 28.7486C31.5966 28.8746 31.4341 29.0037 31.3008 29.1095L30.7629 29.5278L31.3008 29.9461C31.4341 30.052 31.5966 30.181 31.732 30.3071C31.8914 30.4555 32.1017 30.6779 32.2602 30.9975C32.46 31.4 32.5421 31.8507 32.4971 32.2978C32.4614 32.6528 32.3431 32.935 32.2462 33.1301C32.1639 33.2958 32.0574 33.4738 31.97 33.6199L31.5702 34.2885C31.4877 34.4267 31.3863 34.5965 31.2842 34.7412C31.1633 34.9125 30.9806 35.1397 30.7019 35.335C30.349 35.5824 29.9357 35.7296 29.5058 35.7613C29.1664 35.7863 28.8811 35.7257 28.6791 35.6695C28.5085 35.622 28.3223 35.5547 28.1709 35.4998L27.4248 35.2298L27.4228 35.231C27.3953 35.2467 27.3678 35.2622 27.3401 35.2775L27.3378 35.2787L27.2251 35.932C27.1973 36.0938 27.1631 36.2922 27.1191 36.4665C27.067 36.6726 26.9764 36.955 26.7815 37.2411C26.5353 37.6026 26.1944 37.8896 25.7961 38.0707C25.4811 38.214 25.1873 38.2553 24.9753 38.2716C24.7959 38.2853 24.5945 38.2852 24.4303 38.2851H23.5568C23.3926 38.2852 23.1912 38.2853 23.0119 38.2716C22.7999 38.2553 22.5061 38.214 22.191 38.0707C21.7928 37.8896 21.4519 37.6026 21.2056 37.2411C21.0108 36.955 20.9201 36.6726 20.8681 36.4665C20.8241 36.2922 20.7899 36.0938 20.762 35.932L20.6493 35.2787L20.6471 35.2775C20.6194 35.2622 20.5918 35.2467 20.5643 35.231L20.5623 35.2298L19.8162 35.4998C19.6648 35.5546 19.4787 35.622 19.3081 35.6695C19.1061 35.7257 18.8208 35.7862 18.4813 35.7613C18.0515 35.7296 17.6382 35.5824 17.2853 35.335C17.0066 35.1397 16.8238 34.9125 16.703 34.7412C16.6009 34.5965 16.4994 34.4266 16.4168 34.2884L16.0171 33.6199C15.9298 33.4738 15.8232 33.2958 15.7409 33.1301C15.6441 32.935 15.5258 32.6528 15.4901 32.2978C15.4451 31.8507 15.5272 31.4 15.7269 30.9975C15.8855 30.6779 16.0957 30.4555 16.2552 30.3071C16.3906 30.181 16.5531 30.052 16.6863 29.9461L17.2071 29.5321V29.5236L16.6863 29.1095C16.553 29.0037 16.3906 28.8746 16.2551 28.7486C16.0957 28.6001 15.8855 28.3777 15.7269 28.0581C15.5271 27.6556 15.445 27.2049 15.49 26.7579C15.5257 26.4029 15.644 26.1207 15.7409 25.9256C15.8232 25.7599 15.9297 25.5818 16.0171 25.4358L16.4168 24.7672C16.4993 24.629 16.6008 24.4591 16.7029 24.3144C16.8238 24.1432 17.0065 23.9159 17.2852 23.7206C17.6382 23.4733 18.0514 23.326 18.4813 23.2944C18.8207 23.2694 19.106 23.3299 19.308 23.3861C19.4786 23.4336 19.6648 23.501 19.8161 23.5559L20.5623 23.8258L20.5643 23.8247C20.5918 23.809 20.6194 23.7935 20.6471 23.7781L20.6493 23.7769L20.762 23.1236C20.7899 22.9618 20.8241 22.7635 20.8681 22.5891C20.9201 22.383 21.0108 22.1006 21.2056 21.8146C21.4519 21.4531 21.7928 21.1661 22.191 20.985C22.5061 20.8416 22.7999 20.8004 23.0119 20.7841ZM25.6611 23.4266C25.5951 23.0445 25.5621 22.8534 25.465 22.7108C25.3829 22.5903 25.2693 22.4946 25.1366 22.4342C24.9794 22.3628 24.7854 22.3628 24.3976 22.3628H23.5896C23.2017 22.3628 23.0077 22.3628 22.8506 22.4342C22.7179 22.4946 22.6043 22.5903 22.5222 22.7108C22.425 22.8534 22.392 23.0445 22.3261 23.4266L22.2018 24.1466C22.1575 24.4035 22.1353 24.5319 22.0884 24.6306C22.0422 24.7276 22.0045 24.7806 21.928 24.8559C21.8501 24.9326 21.706 25.0123 21.4177 25.1716C21.3964 25.1834 21.3753 25.1953 21.3542 25.2073C21.0785 25.3647 20.9406 25.4435 20.8382 25.4701C20.7376 25.4963 20.675 25.5017 20.5714 25.493C20.466 25.4843 20.3479 25.4415 20.1116 25.3561L19.3044 25.064C18.9467 24.9346 18.7678 24.8699 18.5982 24.8824C18.4549 24.8929 18.3171 24.942 18.1995 25.0244C18.0603 25.122 17.9627 25.2852 17.7675 25.6117L17.4017 26.2236C17.1956 26.5683 17.0925 26.7407 17.0748 26.9172C17.0598 27.0662 17.0872 27.2164 17.1538 27.3506C17.2326 27.5095 17.3898 27.6345 17.7042 27.8844L18.2815 28.3433C18.482 28.5027 18.5823 28.5825 18.6451 28.6679C18.7131 28.7603 18.7421 28.8204 18.7721 28.931C18.7999 29.0334 18.7999 29.1982 18.7999 29.5278C18.7999 29.8574 18.7999 30.0222 18.7721 30.1247C18.7421 30.2353 18.7131 30.2953 18.6452 30.3877C18.5823 30.4732 18.482 30.5529 18.2815 30.7124L17.7042 31.1712C17.3898 31.4212 17.2326 31.5461 17.1538 31.7051C17.0872 31.8393 17.0598 31.9895 17.0748 32.1385C17.0926 32.315 17.1956 32.4873 17.4017 32.832L17.7675 33.4439C17.9627 33.7704 18.0603 33.9337 18.1995 34.0312C18.3172 34.1137 18.4549 34.1627 18.5982 34.1733C18.7678 34.1857 18.9467 34.121 19.3045 33.9916L20.1116 33.6996C20.3479 33.6141 20.466 33.5714 20.5714 33.5626C20.675 33.554 20.7376 33.5594 20.8382 33.5855C20.9406 33.6122 21.0785 33.6909 21.3542 33.8483C21.3753 33.8604 21.3965 33.8723 21.4177 33.884C21.706 34.0433 21.8501 34.123 21.928 34.1997C22.0045 34.2751 22.0422 34.3281 22.0884 34.425C22.1353 34.5238 22.1575 34.6522 22.2018 34.9091L22.3261 35.629C22.392 36.0112 22.425 36.2022 22.5222 36.3449C22.6043 36.4653 22.7179 36.561 22.8506 36.6214C23.0077 36.6929 23.2017 36.6929 23.5896 36.6929H24.3976C24.7854 36.6929 24.9794 36.6929 25.1366 36.6214C25.2693 36.561 25.3829 36.4653 25.465 36.3449C25.5621 36.2022 25.5951 36.0112 25.6611 35.629L25.7854 34.9091C25.8297 34.6522 25.8519 34.5238 25.8988 34.425C25.9449 34.3281 25.9826 34.2751 26.0591 34.1997C26.1371 34.123 26.2812 34.0433 26.5694 33.884C26.5907 33.8723 26.6119 33.8604 26.6329 33.8483C26.9087 33.6909 27.0465 33.6122 27.1489 33.5855C27.2495 33.5594 27.3121 33.554 27.4157 33.5626C27.5212 33.5714 27.6393 33.6141 27.8755 33.6996L28.6827 33.9916C29.0404 34.1211 29.2194 34.1858 29.3889 34.1733C29.5322 34.1627 29.67 34.1137 29.7876 34.0312C29.9268 33.9337 30.0245 33.7704 30.2197 33.4439L30.5855 32.832C30.7915 32.4874 30.8946 32.315 30.9123 32.1385C30.9273 31.9895 30.8999 31.8393 30.8333 31.7051C30.7545 31.5462 30.5973 31.4212 30.283 31.1712L29.7057 30.7124C29.5051 30.5529 29.4049 30.4732 29.342 30.3877C29.2741 30.2953 29.2451 30.2353 29.215 30.1247C29.1872 30.0223 29.1872 29.8574 29.1872 29.5278C29.1872 29.1982 29.1872 29.0334 29.215 28.931C29.2451 28.8204 29.2741 28.7603 29.342 28.6679C29.4049 28.5825 29.5051 28.5027 29.7057 28.3433L30.283 27.8844C30.5974 27.6344 30.7546 27.5095 30.8334 27.3506C30.9 27.2164 30.9273 27.0662 30.9123 26.9171C30.8946 26.7406 30.7916 26.5683 30.5855 26.2236L30.2197 25.6117C30.0245 25.2852 29.9269 25.122 29.7877 25.0244C29.67 24.942 29.5323 24.8929 29.3889 24.8823C29.2194 24.8699 29.0405 24.9346 28.6827 25.064L27.8756 25.3561C27.6393 25.4415 27.5212 25.4843 27.4157 25.493C27.3121 25.5017 27.2495 25.4963 27.1489 25.4701C27.0465 25.4434 26.9087 25.3647 26.633 25.2073C26.6119 25.1953 26.5907 25.1834 26.5695 25.1716C26.2812 25.0123 26.1371 24.9326 26.0591 24.8559C25.9826 24.7806 25.9449 24.7276 25.8988 24.6306C25.8519 24.5319 25.8297 24.4035 25.7854 24.1466L25.6611 23.4266Z" fill="white" stroke="white" stroke-width="8" mask="url(#path-8-inside-2_405_643)"/>
</svg>
