<svg width="512" height="513" viewBox="0 0 512 513" fill="none" xmlns="http://www.w3.org/2000/svg">
<path fill-rule="evenodd" clip-rule="evenodd" d="M74.667 256.5C74.667 156.352 155.853 75.1667 256 75.1667C356.147 75.1667 437.333 156.352 437.333 256.5C437.333 356.647 356.147 437.833 256 437.833C220.326 437.833 187.12 427.555 159.104 409.803C153.889 406.501 147.5 405.618 141.586 407.382L80.164 425.714L103.29 371.6C106.024 365.204 105.467 357.878 101.8 351.969C84.6015 324.255 74.667 291.57 74.667 256.5ZM256 32.5C132.289 32.5 32.0004 132.788 32.0004 256.5C32.0004 295.713 42.094 332.624 59.8325 364.718L23.05 450.783C19.7983 458.392 21.2396 467.194 26.7481 473.368C32.2566 479.544 40.8388 481.976 48.7677 479.608L144.755 450.964C177.546 469.759 215.546 480.5 256 480.5C379.712 480.5 480 380.212 480 256.5C480 132.788 379.712 32.5 256 32.5ZM304.907 303.058L276.87 322.806C263.74 315.327 249.222 304.886 234.66 290.324C219.522 275.186 208.299 259.557 200.024 245.221L217.841 230.098C225.487 223.608 227.58 212.667 222.869 203.813L200.167 161.146C197.11 155.401 191.598 151.365 185.198 150.186C178.797 149.008 172.209 150.815 167.306 155.094L160.575 160.968C144.389 175.095 134.816 198.309 142.75 221.814C150.976 246.181 168.53 284.532 204.491 320.494C243.181 359.184 282.481 374.42 305.463 380.338C323.981 385.104 341.504 378.714 353.852 368.654L366.47 358.371C371.868 353.974 374.78 347.218 374.272 340.274C373.762 333.33 369.896 327.071 363.915 323.506L328.111 302.173C320.879 297.865 311.791 298.211 304.907 303.058Z" fill="white"/>
</svg>
